<?xml version="1.0" encoding="utf-8"?>
<!-- Generator: Adobe Illustrator 21.1.0, SVG Export Plug-In . SVG Version: 6.00 Build 0)  -->
<svg version="1.1" id="Layer_1" xmlns="http://www.w3.org/2000/svg" xmlns:xlink="http://www.w3.org/1999/xlink" x="0px" y="0px"
	 viewBox="0 0 290 75.6" style="enable-background:new 0 0 290 75.6;" xml:space="preserve">
<style type="text/css">
	.st0{fill:#FF6E62;}
	.st1{fill:#E6F3DF;}
	.st2{fill:#FF7B6E;}
	.st3{fill:#8B7F77;}
	.st4{fill:#BDBEC0;}
	.st5{fill:#6EBF58;}
	.st6{fill:#F94645;}
	.st7{fill:#022A3A;}
	.st8{opacity:0.1;fill:none;stroke:#000000;stroke-width:0.868;stroke-miterlimit:10;}
	.st9{fill:none;stroke:#EF4025;stroke-width:0.5;stroke-miterlimit:10;}
	.st10{fill:none;stroke:#000000;stroke-width:0.35;stroke-miterlimit:10;}
	.st11{fill:#19150F;}
	.st12{fill:#231F20;}
	.st13{fill:none;stroke:#231F20;stroke-width:0.7103;stroke-linecap:round;stroke-miterlimit:10;}
	.st14{fill:none;stroke:#000000;stroke-width:0.5;stroke-linecap:round;stroke-miterlimit:10;}
	.st15{fill:none;stroke:#000000;stroke-width:0.5;stroke-miterlimit:10;}
	.st16{fill:none;stroke:#000000;stroke-width:0.5;stroke-linecap:round;stroke-linejoin:round;stroke-miterlimit:10;}
	.st17{fill:none;stroke:#231F20;stroke-linecap:round;stroke-linejoin:round;stroke-miterlimit:10;}
	.st18{fill:none;stroke:#000000;stroke-width:0.5329;stroke-linecap:round;stroke-miterlimit:10;}
	.st19{fill:#84C86F;stroke:#000000;stroke-width:0.5;stroke-linecap:round;stroke-miterlimit:10;}
	.st20{fill:none;stroke:#19150F;stroke-width:0.5;stroke-miterlimit:10;}
	.st21{fill:none;stroke:#19150F;stroke-width:0.33;stroke-miterlimit:10;}
	.st22{fill:none;stroke:#19150F;stroke-width:0.4483;stroke-miterlimit:10;}
	.st23{fill:none;stroke:#19150F;stroke-width:0.2959;stroke-miterlimit:10;}
	.st24{fill:none;stroke:#000000;stroke-miterlimit:10;}
	.st25{fill:none;stroke:#000000;stroke-width:0.4451;stroke-linecap:round;stroke-linejoin:round;stroke-miterlimit:10;}
	.st26{fill:#FFFFFF;stroke:#231F20;stroke-width:0.7103;stroke-linecap:round;stroke-miterlimit:10;}
	.st27{fill:#85939C;}
	.st28{fill:#9B9089;}
	.st29{fill:#F42534;}
	.st30{clip-path:url(#SVGID_2_);fill:none;stroke:#F42534;stroke-miterlimit:10;}
	.st31{clip-path:url(#SVGID_4_);fill:none;stroke:#F42534;stroke-miterlimit:10;}
	.st32{clip-path:url(#SVGID_6_);fill:none;stroke:#F42534;stroke-miterlimit:10;}
	.st33{clip-path:url(#SVGID_8_);fill:none;stroke:#F42534;stroke-miterlimit:10;}
	.st34{fill:none;stroke:#364F5D;stroke-width:0.5;stroke-miterlimit:10;}
	.st35{fill:#364F5D;}
	.st36{clip-path:url(#SVGID_10_);}
	.st37{clip-path:url(#SVGID_12_);}
	.st38{fill:#1B3A49;}
	.st39{fill:#506571;}
	.st40{fill:#6A7B86;}
	.st41{fill:#A1ABB2;}
	.st42{fill:#BDC4C9;}
	.st43{fill:#111820;}
	.st44{fill:#232930;}
	.st45{fill:#393F46;}
	.st46{fill:#51565D;}
	.st47{fill:#6B6F74;}
	.st48{fill:#85888D;}
	.st49{fill:#A1A3A6;}
	.st50{fill:#706259;}
	.st51{fill:#7C6F66;}
	.st52{fill:#AAA19A;}
	.st53{fill:#BAB2AC;}
	.st54{fill:#CAC3BF;}
	.st55{fill:#DAD5D2;}
	.st56{fill:#FE6359;}
	.st57{fill:#FF9183;}
	.st58{fill:#FFA799;}
	.st59{fill:#FFBCB0;}
	.st60{fill:#FFD0C7;}
	.st61{fill:none;stroke:#000000;stroke-width:0.45;stroke-linecap:round;stroke-miterlimit:10;}
	.st62{fill:none;stroke:#000000;stroke-width:0.45;stroke-linecap:round;stroke-linejoin:round;stroke-miterlimit:10;}
	.st63{fill:none;stroke:#000000;stroke-width:0.75;stroke-miterlimit:10;}
	.st64{fill:none;stroke:#000000;stroke-width:0.75;stroke-linecap:round;stroke-miterlimit:10;}
	.st65{fill:none;stroke:#F94645;stroke-width:0.5;stroke-linecap:round;stroke-linejoin:round;stroke-miterlimit:10;}
	.st66{fill:none;stroke:#9B9089;stroke-width:0.5;stroke-linecap:round;stroke-linejoin:round;stroke-miterlimit:10;}
	.st67{fill:none;stroke:#85939C;stroke-width:0.5;stroke-linecap:round;stroke-linejoin:round;stroke-miterlimit:10;}
	.st68{fill:#7D8C96;}
	.st69{fill:#7E7168;}
	.st70{fill:none;stroke:#BCBEC0;stroke-width:0.5;stroke-miterlimit:10;}
	.st71{fill:#79C363;}
	.st72{fill:#84C86F;}
	.st73{fill:#FE6359;stroke:#000000;stroke-width:0.5;stroke-linecap:round;stroke-linejoin:round;stroke-miterlimit:10;}
	.st74{fill:none;stroke:#000000;stroke-width:0.405;stroke-linecap:round;stroke-linejoin:round;stroke-miterlimit:10;}
	.st75{fill:none;stroke:#BCBEC0;stroke-linecap:round;stroke-linejoin:round;stroke-miterlimit:10;stroke-dasharray:0.25,4;}
	.st76{fill:none;stroke:#506571;stroke-linecap:round;stroke-linejoin:round;stroke-miterlimit:10;}
	.st77{fill:none;stroke:#506571;stroke-width:0.5;stroke-linecap:round;stroke-linejoin:round;stroke-miterlimit:10;}
	.st78{fill:none;stroke:#BCBEC0;stroke-width:0.5026;stroke-miterlimit:10;}
	.st79{fill:none;stroke:#FE6359;stroke-width:0.5;stroke-miterlimit:10;}
	.st80{fill:none;stroke:#506571;stroke-width:0.405;stroke-linecap:round;stroke-linejoin:round;stroke-miterlimit:10;}
	.st81{fill:#55565A;}
	.st82{fill:#231F20;stroke:#231F20;stroke-width:0.25;stroke-miterlimit:10;}
	.st83{fill:#231F20;stroke:#231F20;stroke-width:0.2873;stroke-miterlimit:10;}
	.st84{fill:none;stroke:#BCBEC0;stroke-width:0.5641;stroke-miterlimit:10;}
	.st85{fill:#FFFFFF;stroke:#231F20;stroke-linecap:round;stroke-miterlimit:10;}
	.st86{fill:none;stroke:#231F20;stroke-linecap:round;stroke-miterlimit:10;}
	.st87{fill:#84C86F;stroke:#000000;stroke-width:0.3784;stroke-linecap:round;stroke-miterlimit:10;}
	.st88{fill:none;stroke:#55565A;stroke-width:0.7103;stroke-linecap:round;stroke-miterlimit:10;}
	.st89{fill:none;stroke:#55565A;stroke-linejoin:round;stroke-miterlimit:10;}
	.st90{fill:none;stroke:#55565A;stroke-miterlimit:10;}
	.st91{fill:none;stroke:#55565A;stroke-width:1.0019;stroke-miterlimit:10;}
	.st92{fill:none;stroke:#55565A;stroke-width:0.8047;stroke-miterlimit:10;}
	.st93{fill:none;stroke:#FE6359;stroke-linecap:round;stroke-linejoin:round;stroke-miterlimit:10;}
	.st94{fill:none;stroke:#BCBEC0;stroke-width:0.5308;stroke-miterlimit:10;}
	.st95{fill:none;stroke:#BCBEC0;stroke-width:0.4686;stroke-miterlimit:10;}
	.st96{fill:none;stroke:#BCBEC0;stroke-miterlimit:10;}
	.st97{fill:none;stroke:#BCBEC0;stroke-width:2;stroke-miterlimit:10;}
	.st98{fill:none;stroke:#6EBF58;stroke-linecap:round;stroke-linejoin:round;stroke-miterlimit:10;}
	.st99{fill:none;stroke:#364F5D;stroke-linecap:round;stroke-linejoin:round;stroke-miterlimit:10;}
	.st100{fill:none;stroke:#000000;stroke-width:0.5308;stroke-miterlimit:10;}
	.st101{fill:none;stroke:#FE6359;stroke-width:1.1;stroke-linecap:round;stroke-linejoin:round;stroke-miterlimit:10;}
	.st102{fill:none;stroke:#55565A;stroke-linecap:round;stroke-miterlimit:10;}
	.st103{fill:none;stroke:#000000;stroke-width:1.1;stroke-linecap:round;stroke-linejoin:round;stroke-miterlimit:10;}
	.st104{fill:none;stroke:#111820;stroke-width:0.7103;stroke-linecap:round;stroke-miterlimit:10;}
	.st105{fill:none;stroke:#111820;stroke-width:1.1;stroke-linecap:round;stroke-linejoin:round;stroke-miterlimit:10;}
	.st106{fill:none;stroke:#111820;stroke-width:0.5;stroke-linecap:round;stroke-linejoin:round;stroke-miterlimit:10;}
	.st107{fill:#111820;stroke:#111820;stroke-width:0.25;stroke-miterlimit:10;}
	.st108{fill:#FFFFFF;stroke:#111820;stroke-width:0.7103;stroke-linecap:round;stroke-miterlimit:10;}
	.st109{fill:none;stroke:#111820;stroke-width:0.405;stroke-linecap:round;stroke-linejoin:round;stroke-miterlimit:10;}
	.st110{fill:none;stroke:#111820;stroke-width:0.5308;stroke-miterlimit:10;}
	.st111{fill:none;stroke:#FE6359;stroke-width:1.25;stroke-linecap:round;stroke-linejoin:round;stroke-miterlimit:10;}
	.st112{fill:none;stroke:#FE6359;stroke-width:0.9806;stroke-linecap:round;stroke-linejoin:round;stroke-miterlimit:10;}
	.st113{fill:none;stroke:#FE6359;stroke-width:1.2098;stroke-linecap:round;stroke-linejoin:round;stroke-miterlimit:10;}
	.st114{fill:none;stroke:#55565A;stroke-width:3.0846;stroke-miterlimit:10;}
	.st115{fill:none;stroke:#55565A;stroke-width:1.6515;stroke-miterlimit:10;}
	.st116{fill:none;stroke:#55565A;stroke-width:0.7817;stroke-miterlimit:10;}
	.st117{fill:none;stroke:#55565A;stroke-width:3.0905;stroke-miterlimit:10;}
	.st118{fill:none;stroke:#55565A;stroke-width:2.4821;stroke-miterlimit:10;}
	.st119{fill:none;stroke:#FE6359;stroke-width:3.0846;stroke-miterlimit:10;}
	.st120{fill:none;stroke:#ED1C24;stroke-miterlimit:10;}
	.st121{fill:#FFA193;}
	.st122{fill:none;stroke:#55565A;stroke-width:0.8341;stroke-miterlimit:10;}
	.st123{fill:none;stroke:#55565A;stroke-width:0.841;stroke-miterlimit:10;}
	.st124{fill:none;stroke:#55565A;stroke-width:0.8365;stroke-miterlimit:10;}
</style>
<g>
	<path class="st12" d="M13.9,34.4l-0.3,0.2l0,0L13.9,34.4c-4.6-6.6-9.4-13.5-7.4-19.8c0.8-2.6,3.3-3.6,5.3-3.2
		c1.8,0.3,3.7,1.8,3.6,5.1c0,0.6,0.5,1.1,1.1,1.1c0.6,0,1.1-0.5,1.1-1.1c0.1-4.7-2.9-6.9-5.5-7.3c-2.9-0.5-6.7,1-7.8,4.8
		C2,21.3,7.1,28.6,12,35.6c1.7,2.4,3.4,4.8,4.7,7.2c3.4,6,7,17.4,4.1,24.1c-1.4,3.3-5,5.5-9.1,5.7c-3.8,0.2-7.1-1.5-8.7-4.4
		c-0.3-0.5-1-0.7-1.5-0.4c-0.3,0.1-0.5,0.4-0.5,0.7C1,68.7,1,69,1.2,69.3c1.9,3.5,5.7,5.6,10.1,5.6c0.2,0,0.4,0,0.7,0
		c5-0.2,9.3-3,11-7c3.4-7.8-0.8-20.2-4.2-26.1C17.3,39.2,15.5,36.8,13.9,34.4z"/>
	<path class="st12" d="M64,31.3L64,31.3c-1.3-0.5-3.2-0.4-5.3,2.4c-0.3,0.4-0.7,1-1.2,1.9l0-0.4l0,0.1c0-0.4,0-0.7-0.1-0.9
		c0-0.5-0.1-1.9-1.3-2.1c-1.4-0.3-2.2,1.3-4.3,5.4c-1.6,3.2-3.6,7.2-5.5,8.9c-1,0.9-1.5,0.6-1.7,0.5c-1.1-0.7-2.1-3.8-2.3-7.3
		c1.5-2.3,3.2-5.3,2.8-7c-0.2-0.9-0.9-1.4-1.8-1.6c-0.7-0.1-1.9,0.1-2.6,2.3c-0.5,1.4-0.7,3.4-0.6,5.7c-2.1,3-5.2,6.7-7.6,8.3
		c-0.6,0.4-0.8,0.3-0.9,0.2c-2-1.3-2.7-11.2-1.7-23.1c7.1-1.4,16.3-2.8,24.7-3.7h0c0.6-0.1,1-0.6,1-1.2c-0.1-0.6-0.6-1-1.2-1
		c-2.2,0.3-13.8,1.6-24.3,3.6c0.3-2.9,0.7-5.6,1.1-8c0.1-0.6-0.3-1.2-0.9-1.3c-0.3-0.1-0.6,0-0.8,0.2c-0.2,0.2-0.4,0.4-0.5,0.7
		c-0.5,2.6-0.9,5.6-1.2,8.9l0,0l0,0c-9.3,1.9-14.4,3.7-15.6,5.6l0,0c-0.3,0.5-0.2,1.2,0.3,1.5c0.2,0.1,0.4,0.2,0.6,0.2
		c0.4,0,0.7-0.2,0.9-0.5c0.5-0.7,2.9-2.3,13.6-4.5c-0.5,5.7-1.4,21.9,2.7,24.6c0.6,0.4,1.8,0.8,3.4-0.2c1.7-1.1,4.3-3.9,6.6-6.8
		c0.3,2,1.2,5.3,3,6.5c0.6,0.4,2.3,1.2,4.4-0.7c2.2-2,4.3-6.2,6.1-9.6c0.4-0.9,0.9-1.8,1.4-2.7c0.1,2.3,0.2,6.2,0.2,10.3
		c0.3,17.3,0.3,17.3,1.7,17.4l0.1,0c1,0,1.2-1.1,1.3-1.5c0.1-0.4-0.1-0.8-0.4-1.1c-0.2-2.7-0.3-9.7-0.4-14.9l-0.1-4c0,0,0,3.7,0,0
		s2.2-6.5,2.8-7.2c0.7-0.9,1.8-2,2.8-1.6c1.4,0.5,2.5,3.4,2.4,6.3c-0.1,1.4-0.6,6.1-5.1,7.3c-0.6,0.2-0.9,0.8-0.8,1.4
		c0.1,0.5,0.6,0.8,1.1,0.8c0.1,0,0.2,0,0.3,0c4-1.1,6.6-4.6,6.8-9.4C68,35.7,66.4,32.2,64,31.3z"/>
	<path class="st12" d="M147,35.7L147,35.7c-0.5-0.3-1.2-0.1-1.5,0.5c-2.6,4.8-4.5,7.9-6.4,8.9c-1.3,0.7-2.3,0.4-3.1-0.8
		c-0.3-0.5-0.6-1.1-0.9-1.8c1.8-3.9,2.8-9.4,1.4-11c-0.5-0.6-1.5-0.9-2.8,0.1c-1.9,1.7-2,7-1,10.8c-0.4,0.7-0.8,1.3-1.2,1.7
		c-1.3,1.3-2.1,1.6-2.5,1.5c-1.2-0.4-1.8-4.8-2-6.7c-0.3-2.5-0.5-3.7-1.6-3.8c-1.2-0.1-1.6,1.2-2,2.4c-2.5,7.4-4.1,8-4.6,8
		c-2,0-4.3-7.8-5.2-10.8c-1-3.4-1.3-4.3-2.4-4.1c-1.1,0.1-1.2,1.3-1.2,1.8c-0.2,2.2-0.5,10.1-0.5,10.8c-0.6-2.8-1.1-5.9-1.5-7.9
		c-0.2-0.8-0.6-3-2.2-3.2c-2.1-0.3-3.7,3-6.7,9.4c-0.5,1.1-1.1,2.3-1.6,3.4c-0.1-0.8-0.2-1.8-0.2-2.4c-0.3-3.2-0.4-4.3-1.6-4.4
		c-1.1-0.1-1.4,1.1-1.6,1.6c-2.4,7.1-4.1,7.1-4.1,7.1c-0.5-0.1-1.3-1.7-1.4-4.6c0-4,2-7.4,2.8-7.4c0.1,0,0.7,0.5,1,2.5
		c0.1,0.3,0.2,0.5,0.5,0.7c0.2,0.2,0.5,0.2,0.8,0.2c0.6-0.1,1-0.7,0.9-1.3c-0.7-3.7-2.2-4.4-3.4-4.3c-2.8,0.3-4.9,5.4-4.9,9.7
		c0,0.7,0.2,2.3,0.2,2.3s-1.5,1.6-2.2,1.5c-1.8-0.3-3.5-6.4-4.5-9.7c-1.3-4.3-1.8-6.2-3.4-6.3c0,0,0,0,0,0c-0.8,0-1.4,0.6-1.8,1.9
		c-1.1,3.2-3.4,11.4-3.6,12.2c-0.2-3.8-0.2-7.8-0.3-11.4c-0.2-11.5-0.4-17.1-2.2-18.3c-0.5-0.3-1.1-0.4-1.6-0.1
		c-0.6,0.3-0.9,0.9-0.6,1.4c0.1,0.3,0.3,0.5,0.6,0.6C67,16,67.2,16,67.4,16c0.8,1.4,1,10.7,1.1,16.4c0.1,4.7,0.2,10,0.5,14.7
		c0,0.9,0.1,2.3,1.3,2.5c0.1,0,0.1,0,0.2,0c1.2,0,1.5-1.1,3.4-7.7c0.8-2.7,1.7-6,2.7-9c0.4,1,0.8,2.5,1.2,3.7
		c1.5,5,3.1,10.6,6.2,11.2c1.1,0.2,2.2-0.2,3.3-1.3l0,0l0,0c0.6,1.3,1.4,2,2.4,2.2c1.9,0.3,3.7-1.5,5.4-5.5c0.3,3.5,0.5,5,1.8,5.2
		c0.5,0.1,1.2,0,1.7-1.1c0.8-1.5,1.6-3.3,2.5-5.1c0.9-2,3.3-7.2,4.3-8c0.1,0.2,0.2,0.6,0.4,1.3c0.8,4.2,1.9,9.8,2.4,12.4
		c0.3,1.2,0.6,2.5,1.7,2.5l0.1,0c1.4-0.1,1.5-1.2,1.7-9.8c0-1.3,0.1-2.7,0.1-3.9c1.8,6.1,3.7,10.9,6.9,10.9c2.2,0,4.1-2.4,6.1-7.8
		c0.4,3.2,1,7.1,3.4,7.9c1.4,0.5,3-0.2,4.8-2.1c0.2-0.2,0.4-0.4,0.6-0.7c0.1,0.3,0.3,0.5,0.4,0.7c1.5,2.2,3.7,2.7,6,1.5
		c2.4-1.2,4.5-4.5,7.4-9.8C147.7,36.7,147.5,36,147,35.7z M134.3,38c-0.1-2.1,0.2-3.9,0.6-4.6C135,34.2,134.8,35.9,134.3,38z"/>
	<path class="st12" d="M162,11.3c-0.3-0.1-0.6,0-0.8,0.1c-0.3,0.1-0.4,0.4-0.5,0.7c-0.1,0.3,0,0.6,0.1,0.8
		c6.1,10.9,1.8,60.1,1.8,60.6c-0.1,0.6,0.4,1.2,1,1.2l0.1,0c0.6,0,1.1-0.4,1.1-1c0.2-2,4.5-50.3-2.1-61.9
		C162.5,11.6,162.3,11.4,162,11.3z"/>
	<path class="st12" d="M198.6,51.4c-0.3-0.1-0.6-0.2-0.8-0.1h0c-0.1,0-10.2,3.4-24.3,7.9c-3.2,1-4,0.5-4.1,0.3
		c-1.4-1.7,3.2-10.5,7.6-18.9c1.6-3.1,3.3-6.3,5-9.8c6.9-13.9,7.2-24.2,0.8-28.4c-8.2-5.2-26.5,1.1-42,20.5
		c-0.2,0.2-0.3,0.5-0.2,0.8c0,0.3,0.2,0.6,0.4,0.7c0.2,0.2,0.5,0.3,0.8,0.2c0.3,0,0.6-0.2,0.7-0.4c14.2-17.8,31.7-24.7,39.1-20
		c5.4,3.4,4.8,12.7-1.6,25.5c-1.7,3.4-3.4,6.7-5,9.8c-6,11.6-9.7,18.6-7.3,21.4c0.6,0.7,1.5,1.1,2.8,1.1c1,0,2.2-0.2,3.7-0.7
		c12.8-4.1,22.4-7.2,24.3-7.9c0.6-0.2,0.9-0.8,0.7-1.4C199.1,51.8,198.9,51.5,198.6,51.4z"/>
	<path class="st12" d="M288.6,35.4c-0.2-0.2-0.5-0.3-0.8-0.3c-2.2,0.1-4,1.6-5.2,4.4c0-1.2,0-2.4-0.1-3.6c0-0.6-0.5-1.1-1.1-1.1
		c-0.6,0-1.1,0.5-1.1,1.1c0,1.3,0,2.6,0.1,3.8c-1.2,1.5-3.4,4.3-6.3,6.1c-0.8,0.5-1.9,1-2.5,0.4c-0.4-0.5-0.7-1.4-0.7-2.7
		c1.6-1.8,2.9-3.8,3.4-5.1c0.9-2.2,0-3.1-0.7-3.4c-0.5-0.2-1.9-0.5-3.1,1.3c-1,1.4-1.7,4-1.8,6.4c-0.1,0.2-0.3,0.3-0.4,0.5
		c-2.5,2.6-4.6,3.7-5.4,3.5c-1.6-0.6,0.8-13.9,1.7-19l0-0.1c0.2-1.3,0.5-2.5,0.7-3.7c0.1-0.3,0-0.6-0.2-0.8
		c-0.2-0.2-0.4-0.4-0.7-0.5c-0.6-0.1-1.2,0.3-1.3,0.9c-0.2,1.2-0.4,2.4-0.7,3.7l0,0.1c-0.9,5-1.6,8.8-1.9,11.9
		c-5.6,8.2-8.2,7.8-8.9,7.5h0c-0.5-0.2-0.9-0.8-1.3-1.7c0.9-1,1.7-2.3,2.6-4c1.5-2.9,1-4.4,0.5-5c-0.5-0.7-1.3-1-2.2-0.8
		c-1.4,0.3-2.7,1.7-3.2,3.6c-0.5,1.8-0.5,3.8-0.2,5.5c-0.6,0.5-1.2,0.8-1.7,0.8c-1.9,0-3.8-3.6-4.8-5.5c-1-1.9-1.4-2.8-2.5-2.7
		c-0.3,0-0.9,0.2-1.2,1.1c-0.2,0.7-0.4,1.6-0.6,2.7c-0.2-3.1-0.4-4.4-1.6-4.6c-0.7-0.1-1.3,0.3-1.8,1.2c-0.2,0.4-0.4,0.9-0.5,1.5
		c-0.1-1.5-0.4-2.2-1.2-2.5c-1.1-0.4-1.9,0.7-2.2,1c-1.2,1.6-2.1,3.3-3.1,5c-1.1,2-2.2,3.9-3.4,5.3c-0.3-0.6-0.6-2.5-0.9-7.5
		c-0.2-3.7-0.3-4.6-1.3-4.8c-0.4-0.1-1,0-1.4,0.7c-1.3,2.2-2.3,4.1-3.1,5.8c-0.6,1.1-1.1,2.1-1.6,3.1c0.2-3,0.6-7.6,1-11.3
		c0.3-3,0.6-6.2,0.8-8.8c0-0.3-0.1-0.6-0.3-0.8c-0.2-0.2-0.5-0.4-0.8-0.4c-0.6,0-1.1,0.4-1.2,1c-0.2,2.6-0.5,5.7-0.8,8.7
		c-0.2,2.5-0.4,4.6-0.6,6.4c-3.1,3.6-6,5.7-9.6,6.6c-0.9,0.2-1.2,0-1.3-0.2c-1-1.2-0.2-5.6,0.8-7.6c0.6-1.2,1.4-1.8,1.6-1.7
		c0.1,0,0.3,0.3,0.5,1c0.1,0.3,0.3,0.5,0.5,0.7c0.3,0.2,0.6,0.2,0.8,0.1c0.3-0.1,0.5-0.3,0.7-0.5c0.2-0.3,0.2-0.6,0.1-0.8
		c-0.5-2.1-1.6-2.6-2.4-2.7c-1.6-0.2-3,1.4-3.8,2.9c-0.5,1.1-1.4,3.6-1.5,6.1l0,0v0c-1.3,1.4-3.2,2.9-4.5,2.1
		c-1.3-0.7-2-3.4-1.7-4.8c0.5-1.1-0.1-1.5-0.4-1.7c-1-0.5-1.4,0.4-1.8,1c-3,5.2-4.3,6.2-4.7,6.4c-0.1-0.3-0.1-1,0.3-2.3
		c1.1-3,3.8-6.2,4.9-6.3c0.1,0,0.1,0,0.2,0.1c0.3,0.5,1,0.7,1.5,0.3c0.5-0.3,0.7-1,0.3-1.5c-0.5-0.8-1.4-1.2-2.3-1.1
		c-2.7,0.3-5.7,4.8-6.8,7.8c-1,2.7-0.4,4,0.2,4.7c0.4,0.4,0.9,0.6,1.4,0.6c0.1,0,0.2,0,0.3,0c1.3-0.2,2.8-1.6,4.8-4.8
		c0.5,1.6,1.4,2.9,2.5,3.5c1.2,0.7,3.2,1,5.9-1.2l0,0l0.1-0.1c0.2,0.4,0.3,0.8,0.6,1.1c0.4,0.5,1.1,1.1,2.4,1.1
		c0.4,0,0.8-0.1,1.2-0.2c3.2-0.9,6-2.5,8.7-5.2l0,0l0,0c-0.4,5.7-0.2,6,0.8,6.3c0.4,0.1,1.1,0,1.5-0.7c1.4-2.1,2.4-4.1,3.5-6.2
		c0.5-0.9,1-1.9,1.6-3c0,0.2,0,0.4,0,0.5c0.3,5.6,0.6,9,2.4,9.7c0.4,0.2,1.3,0.3,2.3-0.8c1.5-1.6,2.6-3.6,3.8-5.8
		c0.7-1.3,1.5-2.6,2.3-3.9c0,1.2-0.1,2.7-0.1,4c-0.1,2.2-0.2,4.8-0.1,6.8c0.1,1,0.2,2.2,1.4,2.2c1.1,0,1.2-0.6,1.9-5.4
		c0.3-1.8,0.6-4,0.9-5.8c0,0.4,0,0.8,0.1,1.1c0.1,1.9,0.2,4,0.5,5.6c0.1,0.8,0.3,2,1.5,2c1.2,0,1.4-0.9,1.9-5.4
		c0.2-1.3,0.4-2.8,0.6-4c0,0,0,0.1,0.1,0.1c1.4,2.7,3.5,6.7,6.8,6.7c0.8,0,1.6-0.3,2.4-0.8c0.5,1,1.2,1.7,2.1,2.1
		c2.5,1.1,5.7-0.7,9.5-5.3l0,0l0,0c-0.1,3.2,0.6,4.9,2,5.4c0.3,0.1,0.6,0.2,1,0.2c1.9,0,4.1-1.7,5.8-3.3c0.2,0.9,0.6,1.7,1.1,2.2
		c0.9,0.9,2.5,1.6,5.3-0.1c2.1-1.3,3.8-3.1,5.1-4.5l0,0l0,0c0,1.4,0.1,2.9,0.2,4.5c0,0.8,0.1,1.7,1.2,1.8c1,0,1.1-0.9,1.2-1.7
		c0.7-6.7,2.5-10.5,4.9-10.6c0.6,0,1.1-0.5,1.1-1.2C289,35.9,288.8,35.6,288.6,35.4z M250.9,40.1c-0.4,0.7-0.7,1.3-1,1.8
		c0-0.9,0.1-1.7,0.3-2.5c0.3-1.3,1.1-1.9,1.4-2C251.7,37.6,251.8,38.4,250.9,40.1z"/>
</g>
</svg>
