<?xml version="1.0" encoding="utf-8"?>
<!-- Generator: Adobe Illustrator 21.1.0, SVG Export Plug-In . SVG Version: 6.00 Build 0)  -->
<svg version="1.1" id="Layer_1" xmlns="http://www.w3.org/2000/svg" xmlns:xlink="http://www.w3.org/1999/xlink" x="0px" y="0px"
	 viewBox="0 0 15 13" style="enable-background:new 0 0 15 13;" xml:space="preserve">
<style type="text/css">
	.st0{fill:#FF6E62;}
	.st1{fill:#E6F3DF;}
	.st2{fill:#FF7B6E;}
	.st3{fill:#8B7F77;}
	.st4{fill:#BDBEC0;}
	.st5{fill:#6EBF58;}
	.st6{fill:#F94645;}
	.st7{fill:#022A3A;}
	.st8{opacity:0.1;fill:none;stroke:#000000;stroke-width:0.868;stroke-miterlimit:10;}
	.st9{fill:none;stroke:#EF4025;stroke-width:0.5;stroke-miterlimit:10;}
	.st10{fill:none;stroke:#000000;stroke-width:0.35;stroke-miterlimit:10;}
	.st11{fill:#19150F;}
	.st12{fill:#231F20;}
	.st13{fill:none;stroke:#231F20;stroke-width:0.7103;stroke-linecap:round;stroke-miterlimit:10;}
	.st14{fill:none;stroke:#000000;stroke-width:0.5;stroke-linecap:round;stroke-miterlimit:10;}
	.st15{fill:none;stroke:#000000;stroke-width:0.5;stroke-miterlimit:10;}
	.st16{fill:none;stroke:#000000;stroke-width:0.5;stroke-linecap:round;stroke-linejoin:round;stroke-miterlimit:10;}
	.st17{fill:none;stroke:#231F20;stroke-linecap:round;stroke-linejoin:round;stroke-miterlimit:10;}
	.st18{fill:none;stroke:#000000;stroke-width:0.5329;stroke-linecap:round;stroke-miterlimit:10;}
	.st19{fill:#84C86F;stroke:#000000;stroke-width:0.5;stroke-linecap:round;stroke-miterlimit:10;}
	.st20{fill:none;stroke:#19150F;stroke-width:0.5;stroke-miterlimit:10;}
	.st21{fill:none;stroke:#19150F;stroke-width:0.33;stroke-miterlimit:10;}
	.st22{fill:none;stroke:#19150F;stroke-width:0.4483;stroke-miterlimit:10;}
	.st23{fill:none;stroke:#19150F;stroke-width:0.2959;stroke-miterlimit:10;}
	.st24{fill:none;stroke:#000000;stroke-miterlimit:10;}
	.st25{fill:none;stroke:#000000;stroke-width:0.4451;stroke-linecap:round;stroke-linejoin:round;stroke-miterlimit:10;}
	.st26{fill:#FFFFFF;stroke:#231F20;stroke-width:0.7103;stroke-linecap:round;stroke-miterlimit:10;}
	.st27{fill:#85939C;}
	.st28{fill:#9B9089;}
	.st29{fill:#F42534;}
	.st30{clip-path:url(#SVGID_2_);fill:none;stroke:#F42534;stroke-miterlimit:10;}
	.st31{clip-path:url(#SVGID_4_);fill:none;stroke:#F42534;stroke-miterlimit:10;}
	.st32{clip-path:url(#SVGID_6_);fill:none;stroke:#F42534;stroke-miterlimit:10;}
	.st33{clip-path:url(#SVGID_8_);fill:none;stroke:#F42534;stroke-miterlimit:10;}
	.st34{fill:none;stroke:#364F5D;stroke-width:0.5;stroke-miterlimit:10;}
	.st35{fill:#364F5D;}
	.st36{clip-path:url(#SVGID_10_);}
	.st37{clip-path:url(#SVGID_12_);}
	.st38{fill:#1B3A49;}
	.st39{fill:#506571;}
	.st40{fill:#6A7B86;}
	.st41{fill:#A1ABB2;}
	.st42{fill:#BDC4C9;}
	.st43{fill:#111820;}
	.st44{fill:#232930;}
	.st45{fill:#393F46;}
	.st46{fill:#51565D;}
	.st47{fill:#6B6F74;}
	.st48{fill:#85888D;}
	.st49{fill:#A1A3A6;}
	.st50{fill:#706259;}
	.st51{fill:#7C6F66;}
	.st52{fill:#AAA19A;}
	.st53{fill:#BAB2AC;}
	.st54{fill:#CAC3BF;}
	.st55{fill:#DAD5D2;}
	.st56{fill:#FE6359;}
	.st57{fill:#FF9183;}
	.st58{fill:#FFA799;}
	.st59{fill:#FFBCB0;}
	.st60{fill:#FFD0C7;}
	.st61{fill:none;stroke:#000000;stroke-width:0.45;stroke-linecap:round;stroke-miterlimit:10;}
	.st62{fill:none;stroke:#000000;stroke-width:0.45;stroke-linecap:round;stroke-linejoin:round;stroke-miterlimit:10;}
	.st63{fill:none;stroke:#000000;stroke-width:0.75;stroke-miterlimit:10;}
	.st64{fill:none;stroke:#000000;stroke-width:0.75;stroke-linecap:round;stroke-miterlimit:10;}
	.st65{fill:none;stroke:#F94645;stroke-width:0.5;stroke-linecap:round;stroke-linejoin:round;stroke-miterlimit:10;}
	.st66{fill:none;stroke:#9B9089;stroke-width:0.5;stroke-linecap:round;stroke-linejoin:round;stroke-miterlimit:10;}
	.st67{fill:none;stroke:#85939C;stroke-width:0.5;stroke-linecap:round;stroke-linejoin:round;stroke-miterlimit:10;}
	.st68{fill:#7D8C96;}
	.st69{fill:#7E7168;}
	.st70{fill:none;stroke:#BCBEC0;stroke-width:0.5;stroke-miterlimit:10;}
	.st71{fill:#79C363;}
	.st72{fill:#84C86F;}
	.st73{fill:#FE6359;stroke:#000000;stroke-width:0.5;stroke-linecap:round;stroke-linejoin:round;stroke-miterlimit:10;}
	.st74{fill:none;stroke:#000000;stroke-width:0.405;stroke-linecap:round;stroke-linejoin:round;stroke-miterlimit:10;}
	.st75{fill:none;stroke:#BCBEC0;stroke-linecap:round;stroke-linejoin:round;stroke-miterlimit:10;stroke-dasharray:0.25,4;}
	.st76{fill:none;stroke:#506571;stroke-linecap:round;stroke-linejoin:round;stroke-miterlimit:10;}
	.st77{fill:none;stroke:#506571;stroke-width:0.5;stroke-linecap:round;stroke-linejoin:round;stroke-miterlimit:10;}
	.st78{fill:none;stroke:#BCBEC0;stroke-width:0.5026;stroke-miterlimit:10;}
	.st79{fill:none;stroke:#FE6359;stroke-width:0.5;stroke-miterlimit:10;}
	.st80{fill:none;stroke:#506571;stroke-width:0.405;stroke-linecap:round;stroke-linejoin:round;stroke-miterlimit:10;}
	.st81{fill:#55565A;}
	.st82{fill:#231F20;stroke:#231F20;stroke-width:0.25;stroke-miterlimit:10;}
	.st83{fill:#231F20;stroke:#231F20;stroke-width:0.2873;stroke-miterlimit:10;}
	.st84{fill:none;stroke:#BCBEC0;stroke-width:0.5641;stroke-miterlimit:10;}
	.st85{fill:#FFFFFF;stroke:#231F20;stroke-linecap:round;stroke-miterlimit:10;}
	.st86{fill:none;stroke:#231F20;stroke-linecap:round;stroke-miterlimit:10;}
	.st87{fill:#84C86F;stroke:#000000;stroke-width:0.3784;stroke-linecap:round;stroke-miterlimit:10;}
	.st88{fill:none;stroke:#55565A;stroke-width:0.7103;stroke-linecap:round;stroke-miterlimit:10;}
	.st89{fill:none;stroke:#55565A;stroke-linejoin:round;stroke-miterlimit:10;}
	.st90{fill:none;stroke:#55565A;stroke-miterlimit:10;}
	.st91{fill:none;stroke:#55565A;stroke-width:1.0019;stroke-miterlimit:10;}
	.st92{fill:none;stroke:#55565A;stroke-width:0.8047;stroke-miterlimit:10;}
	.st93{fill:none;stroke:#FE6359;stroke-linecap:round;stroke-linejoin:round;stroke-miterlimit:10;}
	.st94{fill:none;stroke:#BCBEC0;stroke-width:0.5308;stroke-miterlimit:10;}
	.st95{fill:none;stroke:#BCBEC0;stroke-width:0.4686;stroke-miterlimit:10;}
	.st96{fill:none;stroke:#BCBEC0;stroke-miterlimit:10;}
	.st97{fill:none;stroke:#BCBEC0;stroke-width:2;stroke-miterlimit:10;}
	.st98{fill:none;stroke:#6EBF58;stroke-linecap:round;stroke-linejoin:round;stroke-miterlimit:10;}
	.st99{fill:none;stroke:#364F5D;stroke-linecap:round;stroke-linejoin:round;stroke-miterlimit:10;}
	.st100{fill:none;stroke:#000000;stroke-width:0.5308;stroke-miterlimit:10;}
	.st101{fill:none;stroke:#FE6359;stroke-width:1.1;stroke-linecap:round;stroke-linejoin:round;stroke-miterlimit:10;}
	.st102{fill:none;stroke:#55565A;stroke-linecap:round;stroke-miterlimit:10;}
	.st103{fill:#B0B8C3;}
	.st104{fill:none;stroke:#000000;stroke-width:1.1;stroke-linecap:round;stroke-linejoin:round;stroke-miterlimit:10;}
	.st105{fill:none;stroke:#111820;stroke-width:0.7103;stroke-linecap:round;stroke-miterlimit:10;}
	.st106{fill:none;stroke:#111820;stroke-width:1.1;stroke-linecap:round;stroke-linejoin:round;stroke-miterlimit:10;}
	.st107{fill:none;stroke:#111820;stroke-width:0.5;stroke-linecap:round;stroke-linejoin:round;stroke-miterlimit:10;}
	.st108{fill:#111820;stroke:#111820;stroke-width:0.5;stroke-miterlimit:10;}
	.st109{fill:#111820;stroke:#111820;stroke-width:0.25;stroke-miterlimit:10;}
	.st110{fill:#FFFFFF;stroke:#111820;stroke-width:0.7103;stroke-linecap:round;stroke-miterlimit:10;}
	.st111{fill:none;stroke:#111820;stroke-width:0.405;stroke-linecap:round;stroke-linejoin:round;stroke-miterlimit:10;}
	.st112{fill:none;stroke:#111820;stroke-width:0.5308;stroke-miterlimit:10;}
	.st113{fill:none;stroke:#FE6359;stroke-width:1.25;stroke-linecap:round;stroke-linejoin:round;stroke-miterlimit:10;}
	.st114{fill:none;stroke:#FE6359;stroke-width:0.9806;stroke-linecap:round;stroke-linejoin:round;stroke-miterlimit:10;}
	.st115{fill:none;stroke:#FE6359;stroke-width:1.2098;stroke-linecap:round;stroke-linejoin:round;stroke-miterlimit:10;}
	.st116{fill:none;stroke:#55565A;stroke-width:3.0846;stroke-miterlimit:10;}
	.st117{fill:none;stroke:#55565A;stroke-width:1.6515;stroke-miterlimit:10;}
	.st118{fill:none;stroke:#55565A;stroke-width:0.7817;stroke-miterlimit:10;}
	.st119{fill:none;stroke:#55565A;stroke-width:3.0905;stroke-miterlimit:10;}
	.st120{fill:none;stroke:#55565A;stroke-width:2.4821;stroke-miterlimit:10;}
	.st121{fill:none;stroke:#FE6359;stroke-width:3.0846;stroke-miterlimit:10;}
	.st122{fill:none;stroke:#ED1C24;stroke-miterlimit:10;}
	.st123{fill:#FFA193;}
	.st124{fill:none;stroke:#55565A;stroke-width:0.8341;stroke-miterlimit:10;}
	.st125{fill:none;stroke:#55565A;stroke-width:0.841;stroke-miterlimit:10;}
	.st126{fill:none;stroke:#55565A;stroke-width:0.8365;stroke-miterlimit:10;}
	.st127{fill:none;stroke:#FE6359;stroke-width:2;stroke-linecap:round;stroke-linejoin:round;stroke-miterlimit:10;}
	.st128{fill:none;stroke:#1B1B1B;stroke-width:2;stroke-linecap:round;stroke-linejoin:round;stroke-miterlimit:10;}
	.st129{fill:none;stroke:#55565A;stroke-width:1.2187;stroke-miterlimit:10;}
	.st130{fill:#55565A;stroke:#000000;stroke-miterlimit:10;}
	.st131{fill:none;stroke:#111820;stroke-width:0.2645;stroke-miterlimit:10;}
	.st132{fill:#111820;stroke:#111820;stroke-width:1.9366;stroke-miterlimit:10;}
	.st133{fill:#111820;stroke:#111820;stroke-width:0.9683;stroke-miterlimit:10;}
</style>
<g>
	<path class="st103" d="M6.5,11.4c-2.7,0-5.6-0.8-5.9-1c-0.2-0.1-0.3-0.4-0.2-0.6C0.4,9.5,0.6,9.3,1,9.3c0.8,0,2.5-0.1,3.8-0.3
		c-0.5-0.3-1-0.7-1.1-1c-0.1-0.2,0-0.4,0.1-0.5C3.9,7.5,4,7.4,4.2,7.3C3.6,6.7,3,5.9,2.9,5.6c0-0.2,0.1-0.4,0.2-0.5
		c0.1-0.1,0.4-0.2,0.7,0c0.1,0,0.2,0.1,0.3,0.1C3.4,4.2,2.5,2.4,3,1.8c0.1-0.1,0.5-0.4,1,0c1.1,0.8,3.5,2.2,4.4,2.5
		C8.5,3.6,9,2.6,9.9,2.3c0.8-0.3,1.4-0.1,1.8,0.1c0.1,0,0.3,0.1,0.4,0.1c0.1,0,0.5-0.2,0.7-0.3c0.4-0.2,0.7-0.4,1-0.1
		c0.1,0.1,0.2,0.4-0.1,0.8c-0.1,0.1-0.2,0.2-0.2,0.3c0.4-0.1,0.8,0,0.9,0.3c0.1,0.2,0,0.5-0.1,0.7c-0.2,0.2-0.4,0.3-0.6,0.4
		c-0.2,0.2-0.5,0.3-0.6,0.5c0,0,0,0.3,0,0.5c0,1.1,0,3-2.4,4.8C9.7,11.1,8.1,11.4,6.5,11.4z M4,10.2c2.1,0.3,4.7,0.4,6.1-0.6l0,0
		c2-1.5,2-3,2-4c0-0.4,0-0.8,0.2-1c0.1-0.1,0.1-0.2,0.2-0.3c-0.2,0-0.3-0.1-0.4-0.3c-0.1-0.1-0.1-0.3,0-0.5c-0.3,0-0.5-0.1-0.8-0.2
		c-0.4-0.1-0.7-0.2-1.1-0.1C9.7,3.5,9.4,4.2,9.4,4.7c0,0.3-0.1,0.5-0.3,0.7C8.3,5.8,5.4,4,4.1,3.2C4.4,4,5,5.1,5.3,5.3
		c0.5,0.5,0.2,0.8,0.2,0.9C5.3,6.5,5.1,6.5,4.8,6.5c0.3,0.3,0.6,0.6,0.8,0.6c0.6,0.2,0.6,0.6,0.6,0.7C6,8.1,5.8,8.3,5.5,8.3
		c0.3,0.2,0.7,0.4,0.9,0.4C7,8.8,7,9.2,7,9.3C6.9,9.8,5.5,10,4,10.2z"/>
</g>
</svg>
